<?xml version="1.0" standalone="no"?><!DOCTYPE svg PUBLIC "-//W3C//DTD SVG 1.1//EN" "http://www.w3.org/Graphics/SVG/1.1/DTD/svg11.dtd"><svg t="1563427702918" class="icon" viewBox="0 0 1024 1024" version="1.1" xmlns="http://www.w3.org/2000/svg" p-id="5290" xmlns:xlink="http://www.w3.org/1999/xlink" width="200" height="200"><defs><style type="text/css"></style></defs><path d="M849.988267 125.883733 753.4592 222.4128 801.723733 270.677333 898.2528 174.148267 849.988267 125.883733ZM222.481067 753.4592 125.952 849.988267 174.216533 898.2528 270.7456 801.723733 222.481067 753.4592ZM125.815467 174.148267 222.344533 270.677333 270.609067 222.4128 174.08 125.883733 125.815467 174.148267ZM753.322667 801.655467 849.851733 898.184533 898.116267 849.92 801.5872 753.390933 753.322667 801.655467ZM0 546.133333 136.533333 546.133333 136.533333 477.866667 0 477.866667 0 546.133333ZM887.466667 546.133333 1024 546.133333 1024 477.866667 887.466667 477.866667 887.466667 546.133333ZM546.133333 1024 546.133333 887.466667 477.866667 887.466667 477.866667 1024 546.133333 1024ZM546.133333 136.533333 546.133333 0 477.866667 0 477.866667 136.533333 546.133333 136.533333ZM750.933333 512C750.933333 380.040533 643.959467 273.066667 512 273.066667 380.040533 273.066667 273.066667 380.040533 273.066667 512 273.066667 643.959467 380.040533 750.933333 512 750.933333 643.959467 750.933333 750.933333 643.959467 750.933333 512Z" p-id="5291" fill="#333333"></path></svg>