<?xml version="1.0" standalone="no"?><!DOCTYPE svg PUBLIC "-//W3C//DTD SVG 1.1//EN" "http://www.w3.org/Graphics/SVG/1.1/DTD/svg11.dtd"><svg t="1563427747568" class="icon" viewBox="0 0 1024 1024" version="1.1" xmlns="http://www.w3.org/2000/svg" p-id="6110" xmlns:xlink="http://www.w3.org/1999/xlink" width="200" height="200"><defs><style type="text/css"></style></defs><path d="M806.44096 536.6784c7.59808 0 14.56128-4.21888 18.1248-10.93632l178.688-338.1248a20.39808 20.39808 0 0 0-3.64544-24.04352l-23.40864-23.3472a20.48 20.48 0 0 0-14.4384-5.98016H184.95488L163.20512 84.00896a20.54144 20.54144 0 0 0-18.80064-12.34944H38.83008a20.48 20.48 0 1 0 0 40.96h92.11904l21.48352 49.62304 0.512 1.24928 150.44608 347.46368-121.9584 110.98112a20.43904 20.43904 0 0 0-2.51904 27.56608l25.3952 33.19808a20.41856 20.41856 0 0 0 16.2816 8.04864h683.47904a20.48 20.48 0 1 0 0-40.96H230.72768l-7.84384-10.19904 113.07008-102.87104h470.48704zM202.67008 175.22688h750.592l6.67648 6.656-165.84704 313.81504H341.44256L202.67008 175.22688z m35.5328 591.60576c-51.15904 0-92.75392 41.55392-92.75392 92.71296s41.59488 92.7744 92.75392 92.7744c51.07712 0 92.672-41.59488 92.672-92.75392s-41.59488-92.73344-92.672-92.73344z m0 144.52736c-28.5696 0-51.79392-23.2448-51.79392-51.79392s23.2448-51.75296 51.79392-51.75296a51.77344 51.77344 0 0 1 0 103.54688z m573.7472-144.52736c-51.15904 0-92.75392 41.55392-92.75392 92.71296s41.59488 92.75392 92.75392 92.75392c51.11808 0 92.71296-41.59488 92.71296-92.75392s-41.5744-92.71296-92.71296-92.71296z m0 144.52736c-28.5696 0-51.79392-23.2448-51.79392-51.79392s23.2448-51.75296 51.79392-51.75296a51.8144 51.8144 0 0 1 0 103.54688z" p-id="6111" fill="#333333"></path></svg>