<?xml version="1.0" standalone="no"?><!DOCTYPE svg PUBLIC "-//W3C//DTD SVG 1.1//EN" "http://www.w3.org/Graphics/SVG/1.1/DTD/svg11.dtd"><svg t="1563427818271" class="icon" viewBox="0 0 1024 1024" version="1.1" xmlns="http://www.w3.org/2000/svg" p-id="8078" xmlns:xlink="http://www.w3.org/1999/xlink" width="200" height="200"><defs><style type="text/css"></style></defs><path d="M853.504 533.504c11.776 0 21.504-9.728 21.504-21.504 0-11.776-9.728-21.504-21.504-21.504H170.496c-11.776 0-21.504 9.728-21.504 21.504 0 11.776 9.728 21.504 21.504 21.504h683.008zM853.504 288.256c11.776 0 21.504-9.728 21.504-21.504 0-11.776-9.728-21.504-21.504-21.504H170.496c-11.776 0-21.504 9.728-21.504 21.504 0 11.776 9.728 21.504 21.504 21.504h683.008zM853.504 778.24c11.776 0 21.504-9.728 21.504-21.504 0-11.776-9.728-21.504-21.504-21.504H170.496c-11.776 0-21.504 9.728-21.504 21.504 0 11.776 9.728 21.504 21.504 21.504h683.008z" p-id="8079" fill="#333333"></path></svg>