<?xml version="1.0" standalone="no"?><!DOCTYPE svg PUBLIC "-//W3C//DTD SVG 1.1//EN" "http://www.w3.org/Graphics/SVG/1.1/DTD/svg11.dtd"><svg t="1563427893685" class="icon" viewBox="0 0 1024 1024" version="1.1" xmlns="http://www.w3.org/2000/svg" p-id="11398" xmlns:xlink="http://www.w3.org/1999/xlink" width="200" height="200"><defs><style type="text/css"></style></defs><path d="M972.986 961.515H49.347v-23.676c0-143.473 271.301-260.057 345.21-275.08 2.875-5.497 5.186-18.745 6.368-31.457-17.052-19.055-58.319-70.724-73.903-137.694-15.588-7.499-28.866-23.368-37.237-45.89-11.528-31.739-12.429-75.316 10.118-103.617v-1.436c-4.34-39.546-15.615-144.91 46.175-214.166C382.999 87.514 438.417 66.74 511.17 66.74c72.746 0 128.446 20.774 165.092 61.759 61.786 69.255 50.51 174.62 46.17 214.166v1.436c22.546 28.3 21.644 71.878 10.118 103.617-8.37 22.522-21.65 38.392-37.236 45.89-15.586 66.97-56.852 118.64-73.908 137.694 1.185 12.995 3.498 25.96 6.372 31.457 73.908 15.024 345.209 131.607 345.209 275.08v23.676z m-872.254-47.633h820.87c-12.685-39.24-55.417-82.847-123.516-125.267-71.314-44.45-151.82-74.754-182.148-79.658-37.516-6.086-42.14-62.35-42.14-86.308l-0.282-10.093 7.216-6.933c0.591-0.592 58.318-59.193 70.722-135.071l3.16-19.957h20.208c2.593-0.282 10.964-8.908 15.588-26.836 5.468-21.928 2.312-44.423-7.782-53.103l-8.963-7.499 0.564-11.839 1.184-13.557c4.03-37.235 13.249-124.109-34.36-177.496-27.427-30.61-71.004-45.917-129.884-45.917-58.885 0-102.462 15.307-129.89 45.917-47.608 53.387-38.389 140.26-34.358 177.185l1.184 14.15 0.564 11.557-8.965 7.499c-10.091 8.68-13.25 30.892-7.78 53.103 4.626 17.928 12.995 26.554 15.586 27.145h20.21l3.158 19.927c12.404 75.6 70.13 134.2 70.724 134.792l6.932 6.933v10.093c-0.308 23.959-4.624 80.222-42.14 86.308-30.612 4.904-110.832 35.207-182.146 79.658-68.1 42.42-110.832 86.026-123.516 125.267z" p-id="11399"></path></svg>